<svg width="48" height="48" viewBox="0 0 48 48" fill="none" xmlns="http://www.w3.org/2000/svg">
  <!-- Background circle -->
  <circle cx="24" cy="24" r="24" fill="url(#gradient)"/>
  
  <!-- Woman silhouette -->
  <path d="M16 18C16 16.8954 16.8954 16 18 16H30C31.1046 16 32 16.8954 32 18V26C32 27.1046 31.1046 28 30 28H18C16.8954 28 16 27.1046 16 26V18Z" fill="white"/>
  <path d="M20 20C20 19.4477 20.4477 19 21 19H27C27.5523 19 28 19.4477 28 20V24C28 24.5523 27.5523 25 27 25H21C20.4477 25 20 24.5523 20 24V20Z" fill="white"/>
  
  <!-- Hair -->
  <path d="M18 16C18 16 20 14 24 14C28 14 30 16 30 16" stroke="white" stroke-width="2" fill="none"/>
  
  <!-- Text -->
  <text x="24" y="36" text-anchor="middle" fill="white" font-family="Arial, sans-serif" font-size="8" font-weight="bold">LF</text>
  
  <!-- Gradient definition -->
  <defs>
    <linearGradient id="gradient" x1="0%" y1="0%" x2="100%" y2="100%">
      <stop offset="0%" style="stop-color:#ec4899;stop-opacity:1" />
      <stop offset="100%" style="stop-color:#8b5cf6;stop-opacity:1" />
    </linearGradient>
  </defs>
</svg> 